Coordinates
version=1
nRows=9
nColumns=24
inDegrees=yes

Units are S.I. units (second, meters, Newtons, ...)
Angles are in degrees.

endheader
time	pelvis_tilt	pelvis_list	pelvis_rotation	pelvis_tx	pelvis_ty	pelvis_tz	hip_flexion_r	hip_adduction_r	hip_rotation_r	knee_angle_r	ankle_angle_r	subtalar_angle_r	mtp_angle_r	hip_flexion_l	hip_adduction_l	hip_rotation_l	knee_angle_l	ankle_angle_l	subtalar_angle_l	mtp_angle_l	lumbar_extension	lumbar_bending	lumbar_rotation
      5.00000000	    -11.05485736	     -3.45672848	     14.89395805	      0.45301737	      1.01279126	      1.42757613	     34.01356491	     -5.83514934	    -19.53334823	    -10.16375830	      6.93367111	      7.31851541	    -44.47990916	     -3.99590810	     -6.50695063	      4.52388490	    -10.95240966	      1.93628908	     26.16120408	    -39.75665567	     -2.97281343	      1.96179630	    -13.52225100
      5.01000000	    -11.12162592	     -3.49290791	     15.23212772	      0.45311519	      1.01135926	      1.42823947	     34.07957286	     -5.70824921	    -18.47934636	    -10.38671724	      6.16977517	      6.47356965	    -44.17234933	     -4.35266203	     -6.79744520	      5.14575844	    -11.29571537	      1.55939227	     25.90725469	    -40.05700564	     -2.87613248	      2.06913033	    -13.68146057
      5.02000000	    -11.18490211	     -3.56824966	     15.57886678	      0.45339442	      1.00994831	      1.42892147	     34.23039033	     -5.59898073	    -17.64707076	    -11.09988754	      5.24529804	      5.74079212	    -43.79221799	     -4.68166055	     -7.12655707	      5.83893331	    -11.65201016	      1.07202315	     25.57333123	    -40.39421788	     -2.75920733	      2.22380353	    -13.85295402
      5.03000000	    -11.23239762	     -3.66285368	     15.90148074	      0.45383600	      1.00860876	      1.42963489	     34.40094223	     -5.46011671	    -16.80864943	    -12.13571354	      4.24262787	      4.89049373	    -43.30425846	     -4.99514994	     -7.46200577	      6.60978786	    -12.04629803	      0.52558382	     25.12950674	    -40.77620686	     -2.64530146	      2.41200557	    -14.00096380
      5.04000000	    -11.25447958	     -3.78103345	     16.19164895	      0.45441604	      1.00739088	      1.43041720	     34.57708006	     -5.27767598	    -16.04922202	    -13.42808743	      3.30217215	      3.98749992	    -42.65674862	     -5.27349199	     -7.80704493	      7.43676703	    -12.52999771	     -0.09232669	     24.52721564	    -41.24053527	     -2.55029637	      2.63415868	    -14.11904483
      5.05000000	    -11.23439603	     -3.96424880	     16.42629603	      0.45520295	      1.00635297	      1.43123342	     34.73317585	     -5.02959613	    -15.59192480	    -14.92285083	      2.32379192	      3.52462254	    -39.76304646	     -5.56437009	     -8.20581375	      8.27876887	    -13.01284104	     -0.80369684	     23.76379586	    -43.36794778	     -2.46994736	      2.95168695	    -14.17465350
      5.06000000	    -11.30416304	     -4.16603664	     16.58980640	      0.45598073	      1.00542242	      1.43216312	     35.00025720	     -4.74122918	    -15.05954240	    -16.53595223	      1.89997797	      2.78240920	    -39.69312215	     -5.64941118	     -8.56428374	      9.07178411	    -13.65872377	     -1.72083601	     23.09917440	    -43.60402008	     -2.30139393	      3.26039800	    -14.20344450
      5.07000000	    -11.32945914	     -4.39708262	     16.66762614	      0.45687438	      1.00479126	      1.43314735	     35.18493878	     -4.38626681	    -14.70408302	    -18.16380234	      1.80947444	      2.30493510	    -39.54053552	     -5.72575229	     -8.91215595	      9.91176111	    -14.35831103	     -2.89296665	     22.19445044	    -43.85838657	     -2.17762368	      3.62277950	    -14.13674000
      5.08000000	    -11.33576960	     -4.64602708	     16.65875571	      0.45782985	      1.00445438	      1.43420814	     35.29669894	     -3.97705892	    -14.48139098	    -19.75316776	      2.06304497	      2.05518559	    -39.38111533	     -5.71768091	     -9.24252631	     10.66517227	    -15.19076339	     -4.29018830	     21.34713104	    -44.09119120	     -2.08093535	      4.01470544	    -14.03198079
